<mxfile host="Electron" agent="Mozilla/5.0 (Windows NT 10.0; Win64; x64) AppleWebKit/537.36 (KHTML, like Gecko) draw.io/24.7.17 Chrome/128.0.6613.36 Electron/32.0.1 Safari/537.36" version="24.7.17">
  <diagram name="Страница — 1" id="0b24h035DkgQKnqFsKaX">
    <mxGraphModel dx="954" dy="1826" grid="1" gridSize="10" guides="1" tooltips="1" connect="1" arrows="1" fold="1" page="1" pageScale="1" pageWidth="827" pageHeight="1169" math="0" shadow="0">
      <root>
        <mxCell id="0" />
        <mxCell id="1" parent="0" />
        <mxCell id="dS_QDMPEyr2YuthlF6ad-53" value="Менеджер" style="shape=umlActor;verticalLabelPosition=bottom;verticalAlign=top;html=1;outlineConnect=0;" vertex="1" parent="1">
          <mxGeometry x="30" y="-10" width="30" height="60" as="geometry" />
        </mxCell>
        <mxCell id="dS_QDMPEyr2YuthlF6ad-54" value="view:country/index.html" style="rounded=0;whiteSpace=wrap;html=1;" vertex="1" parent="1">
          <mxGeometry x="185" width="140" height="40" as="geometry" />
        </mxCell>
        <mxCell id="dS_QDMPEyr2YuthlF6ad-55" value="view:country/show.html" style="rounded=0;whiteSpace=wrap;html=1;" vertex="1" parent="1">
          <mxGeometry x="395" width="140" height="40" as="geometry" />
        </mxCell>
        <mxCell id="dS_QDMPEyr2YuthlF6ad-56" value="Controller:CountryController" style="rounded=0;whiteSpace=wrap;html=1;" vertex="1" parent="1">
          <mxGeometry x="631.5" y="-20" width="163" height="35" as="geometry" />
        </mxCell>
        <mxCell id="dS_QDMPEyr2YuthlF6ad-57" value="model:coyntry" style="rounded=0;whiteSpace=wrap;html=1;" vertex="1" parent="1">
          <mxGeometry x="865" y="-20" width="90" height="40" as="geometry" />
        </mxCell>
        <mxCell id="dS_QDMPEyr2YuthlF6ad-58" value="DB" style="shape=cylinder3;whiteSpace=wrap;html=1;boundedLbl=1;backgroundOutline=1;size=15;" vertex="1" parent="1">
          <mxGeometry x="1070" y="-35" width="60" height="80" as="geometry" />
        </mxCell>
        <mxCell id="dS_QDMPEyr2YuthlF6ad-59" value="" style="endArrow=none;dashed=1;html=1;rounded=0;entryX=0.432;entryY=0.95;entryDx=0;entryDy=0;entryPerimeter=0;" edge="1" parent="1" source="dS_QDMPEyr2YuthlF6ad-145" target="dS_QDMPEyr2YuthlF6ad-54">
          <mxGeometry width="50" height="50" relative="1" as="geometry">
            <mxPoint x="245" y="440" as="sourcePoint" />
            <mxPoint x="245" y="60" as="targetPoint" />
          </mxGeometry>
        </mxCell>
        <mxCell id="dS_QDMPEyr2YuthlF6ad-64" value="" style="endArrow=none;dashed=1;html=1;rounded=0;entryX=0.454;entryY=1.1;entryDx=0;entryDy=0;entryPerimeter=0;" edge="1" parent="1" source="dS_QDMPEyr2YuthlF6ad-124">
          <mxGeometry width="50" height="50" relative="1" as="geometry">
            <mxPoint x="459" y="430" as="sourcePoint" />
            <mxPoint x="458.55999999999995" y="44" as="targetPoint" />
          </mxGeometry>
        </mxCell>
        <mxCell id="dS_QDMPEyr2YuthlF6ad-81" value="" style="endArrow=none;dashed=1;html=1;rounded=0;entryX=0.428;entryY=0.938;entryDx=0;entryDy=0;entryPerimeter=0;" edge="1" parent="1" source="dS_QDMPEyr2YuthlF6ad-131" target="dS_QDMPEyr2YuthlF6ad-57">
          <mxGeometry width="50" height="50" relative="1" as="geometry">
            <mxPoint x="910" y="430" as="sourcePoint" />
            <mxPoint x="845" y="240" as="targetPoint" />
          </mxGeometry>
        </mxCell>
        <mxCell id="dS_QDMPEyr2YuthlF6ad-88" value="" style="endArrow=none;dashed=1;html=1;rounded=0;entryX=0.5;entryY=1;entryDx=0;entryDy=0;entryPerimeter=0;" edge="1" parent="1" source="dS_QDMPEyr2YuthlF6ad-136" target="dS_QDMPEyr2YuthlF6ad-58">
          <mxGeometry width="50" height="50" relative="1" as="geometry">
            <mxPoint x="1100" y="420" as="sourcePoint" />
            <mxPoint x="840" y="270" as="targetPoint" />
          </mxGeometry>
        </mxCell>
        <mxCell id="dS_QDMPEyr2YuthlF6ad-113" value="" style="endArrow=none;dashed=1;html=1;rounded=0;entryX=0.5;entryY=1;entryDx=0;entryDy=0;" edge="1" parent="1" target="dS_QDMPEyr2YuthlF6ad-56">
          <mxGeometry width="50" height="50" relative="1" as="geometry">
            <mxPoint x="713" y="330" as="sourcePoint" />
            <mxPoint x="565" y="240" as="targetPoint" />
          </mxGeometry>
        </mxCell>
        <mxCell id="dS_QDMPEyr2YuthlF6ad-115" value="" style="endArrow=none;dashed=1;html=1;rounded=0;entryX=0;entryY=1;entryDx=0;entryDy=-5;entryPerimeter=0;" edge="1" parent="1">
          <mxGeometry width="50" height="50" relative="1" as="geometry">
            <mxPoint x="827" y="772" as="sourcePoint" />
            <mxPoint x="827" y="632" as="targetPoint" />
          </mxGeometry>
        </mxCell>
        <mxCell id="dS_QDMPEyr2YuthlF6ad-123" value="" style="endArrow=none;dashed=1;html=1;rounded=0;" edge="1" parent="1">
          <mxGeometry width="50" height="50" relative="1" as="geometry">
            <mxPoint x="40" y="330" as="sourcePoint" />
            <mxPoint x="40" y="80" as="targetPoint" />
          </mxGeometry>
        </mxCell>
        <mxCell id="dS_QDMPEyr2YuthlF6ad-125" value="" style="endArrow=none;dashed=1;html=1;rounded=0;entryX=0.454;entryY=1.1;entryDx=0;entryDy=0;entryPerimeter=0;" edge="1" parent="1" target="dS_QDMPEyr2YuthlF6ad-124">
          <mxGeometry width="50" height="50" relative="1" as="geometry">
            <mxPoint x="458" y="330" as="sourcePoint" />
            <mxPoint x="458.55999999999995" y="44" as="targetPoint" />
          </mxGeometry>
        </mxCell>
        <mxCell id="dS_QDMPEyr2YuthlF6ad-124" value="" style="html=1;points=[[0,0,0,0,5],[0,1,0,0,-5],[1,0,0,0,5],[1,1,0,0,-5]];perimeter=orthogonalPerimeter;outlineConnect=0;targetShapes=umlLifeline;portConstraint=eastwest;newEdgeStyle={&quot;curved&quot;:0,&quot;rounded&quot;:0};" vertex="1" parent="1">
          <mxGeometry x="453" y="80" width="10" height="50" as="geometry" />
        </mxCell>
        <mxCell id="dS_QDMPEyr2YuthlF6ad-126" value="" style="endArrow=classic;html=1;rounded=0;" edge="1" parent="1">
          <mxGeometry width="50" height="50" relative="1" as="geometry">
            <mxPoint x="40" y="97" as="sourcePoint" />
            <mxPoint x="453" y="97" as="targetPoint" />
          </mxGeometry>
        </mxCell>
        <mxCell id="dS_QDMPEyr2YuthlF6ad-127" value="Нажимает на кнопку удалить" style="text;html=1;align=center;verticalAlign=middle;resizable=0;points=[];autosize=1;strokeColor=none;fillColor=none;" vertex="1" parent="1">
          <mxGeometry x="170" y="72" width="180" height="30" as="geometry" />
        </mxCell>
        <mxCell id="dS_QDMPEyr2YuthlF6ad-128" value="" style="html=1;points=[[0,0,0,0,5],[0,1,0,0,-5],[1,0,0,0,5],[1,1,0,0,-5]];perimeter=orthogonalPerimeter;outlineConnect=0;targetShapes=umlLifeline;portConstraint=eastwest;newEdgeStyle={&quot;curved&quot;:0,&quot;rounded&quot;:0};" vertex="1" parent="1">
          <mxGeometry x="708" y="106" width="10" height="144" as="geometry" />
        </mxCell>
        <mxCell id="dS_QDMPEyr2YuthlF6ad-129" value="" style="endArrow=classic;html=1;rounded=0;" edge="1" parent="1">
          <mxGeometry width="50" height="50" relative="1" as="geometry">
            <mxPoint x="467" y="121" as="sourcePoint" />
            <mxPoint x="704" y="121" as="targetPoint" />
          </mxGeometry>
        </mxCell>
        <mxCell id="dS_QDMPEyr2YuthlF6ad-130" value="DELETE/couyntry.id" style="text;html=1;align=center;verticalAlign=middle;resizable=0;points=[];autosize=1;strokeColor=none;fillColor=none;" vertex="1" parent="1">
          <mxGeometry x="518" y="100" width="130" height="30" as="geometry" />
        </mxCell>
        <mxCell id="dS_QDMPEyr2YuthlF6ad-132" value="" style="endArrow=none;dashed=1;html=1;rounded=0;entryX=0.428;entryY=0.938;entryDx=0;entryDy=0;entryPerimeter=0;" edge="1" parent="1" target="dS_QDMPEyr2YuthlF6ad-131">
          <mxGeometry width="50" height="50" relative="1" as="geometry">
            <mxPoint x="909" y="330" as="sourcePoint" />
            <mxPoint x="904" y="18" as="targetPoint" />
          </mxGeometry>
        </mxCell>
        <mxCell id="dS_QDMPEyr2YuthlF6ad-131" value="" style="html=1;points=[[0,0,0,0,5],[0,1,0,0,-5],[1,0,0,0,5],[1,1,0,0,-5]];perimeter=orthogonalPerimeter;outlineConnect=0;targetShapes=umlLifeline;portConstraint=eastwest;newEdgeStyle={&quot;curved&quot;:0,&quot;rounded&quot;:0};" vertex="1" parent="1">
          <mxGeometry x="905" y="120" width="10" height="110" as="geometry" />
        </mxCell>
        <mxCell id="dS_QDMPEyr2YuthlF6ad-133" value="" style="endArrow=classic;html=1;rounded=0;" edge="1" parent="1" source="dS_QDMPEyr2YuthlF6ad-128">
          <mxGeometry width="50" height="50" relative="1" as="geometry">
            <mxPoint x="660" y="200" as="sourcePoint" />
            <mxPoint x="900" y="140" as="targetPoint" />
          </mxGeometry>
        </mxCell>
        <mxCell id="dS_QDMPEyr2YuthlF6ad-134" value="@country.destroy" style="text;html=1;align=center;verticalAlign=middle;resizable=0;points=[];autosize=1;strokeColor=none;fillColor=none;" vertex="1" parent="1">
          <mxGeometry x="743" y="114" width="120" height="30" as="geometry" />
        </mxCell>
        <mxCell id="dS_QDMPEyr2YuthlF6ad-135" value="" style="endArrow=classic;html=1;rounded=0;" edge="1" parent="1">
          <mxGeometry width="50" height="50" relative="1" as="geometry">
            <mxPoint x="920" y="150" as="sourcePoint" />
            <mxPoint x="1095" y="150" as="targetPoint" />
          </mxGeometry>
        </mxCell>
        <mxCell id="dS_QDMPEyr2YuthlF6ad-137" value="" style="endArrow=none;dashed=1;html=1;rounded=0;entryX=0.5;entryY=1;entryDx=0;entryDy=0;entryPerimeter=0;" edge="1" parent="1" target="dS_QDMPEyr2YuthlF6ad-136">
          <mxGeometry width="50" height="50" relative="1" as="geometry">
            <mxPoint x="1100" y="320" as="sourcePoint" />
            <mxPoint x="1100" y="45" as="targetPoint" />
            <Array as="points">
              <mxPoint x="1100" y="320" />
            </Array>
          </mxGeometry>
        </mxCell>
        <mxCell id="dS_QDMPEyr2YuthlF6ad-136" value="" style="html=1;points=[[0,0,0,0,5],[0,1,0,0,-5],[1,0,0,0,5],[1,1,0,0,-5]];perimeter=orthogonalPerimeter;outlineConnect=0;targetShapes=umlLifeline;portConstraint=eastwest;newEdgeStyle={&quot;curved&quot;:0,&quot;rounded&quot;:0};" vertex="1" parent="1">
          <mxGeometry x="1095" y="130" width="10" height="80" as="geometry" />
        </mxCell>
        <mxCell id="dS_QDMPEyr2YuthlF6ad-138" value="DELETE&lt;span style=&quot;white-space: pre;&quot;&gt;&#x9;&lt;/span&gt;&amp;nbsp;from&amp;nbsp; counties&lt;div&gt;where id=.id&lt;/div&gt;" style="text;html=1;align=center;verticalAlign=middle;resizable=0;points=[];autosize=1;strokeColor=none;fillColor=none;" vertex="1" parent="1">
          <mxGeometry x="930" y="112" width="160" height="40" as="geometry" />
        </mxCell>
        <mxCell id="dS_QDMPEyr2YuthlF6ad-139" value="" style="endArrow=classic;html=1;rounded=0;" edge="1" parent="1" target="dS_QDMPEyr2YuthlF6ad-131">
          <mxGeometry width="50" height="50" relative="1" as="geometry">
            <mxPoint x="1093" y="200" as="sourcePoint" />
            <mxPoint x="916" y="194.01999999999998" as="targetPoint" />
            <Array as="points" />
          </mxGeometry>
        </mxCell>
        <mxCell id="dS_QDMPEyr2YuthlF6ad-140" value="Удаление" style="text;html=1;align=center;verticalAlign=middle;resizable=0;points=[];autosize=1;strokeColor=none;fillColor=none;" vertex="1" parent="1">
          <mxGeometry x="930" y="168" width="80" height="30" as="geometry" />
        </mxCell>
        <mxCell id="dS_QDMPEyr2YuthlF6ad-141" value="" style="endArrow=classic;html=1;rounded=0;" edge="1" parent="1">
          <mxGeometry width="50" height="50" relative="1" as="geometry">
            <mxPoint x="905" y="211" as="sourcePoint" />
            <mxPoint x="727" y="211" as="targetPoint" />
            <Array as="points" />
          </mxGeometry>
        </mxCell>
        <mxCell id="dS_QDMPEyr2YuthlF6ad-142" value="Результата удаления" style="text;html=1;align=center;verticalAlign=middle;resizable=0;points=[];autosize=1;strokeColor=none;fillColor=none;" vertex="1" parent="1">
          <mxGeometry x="731" y="184" width="140" height="30" as="geometry" />
        </mxCell>
        <mxCell id="dS_QDMPEyr2YuthlF6ad-146" value="" style="endArrow=none;dashed=1;html=1;rounded=0;entryX=0.432;entryY=0.95;entryDx=0;entryDy=0;entryPerimeter=0;" edge="1" parent="1" target="dS_QDMPEyr2YuthlF6ad-145">
          <mxGeometry width="50" height="50" relative="1" as="geometry">
            <mxPoint x="244" y="330" as="sourcePoint" />
            <mxPoint x="245" y="38" as="targetPoint" />
          </mxGeometry>
        </mxCell>
        <mxCell id="dS_QDMPEyr2YuthlF6ad-145" value="" style="html=1;points=[[0,0,0,0,5],[0,1,0,0,-5],[1,0,0,0,5],[1,1,0,0,-5]];perimeter=orthogonalPerimeter;outlineConnect=0;targetShapes=umlLifeline;portConstraint=eastwest;newEdgeStyle={&quot;curved&quot;:0,&quot;rounded&quot;:0};" vertex="1" parent="1">
          <mxGeometry x="240" y="214" width="10" height="61" as="geometry" />
        </mxCell>
        <mxCell id="dS_QDMPEyr2YuthlF6ad-147" value="" style="endArrow=classic;html=1;rounded=0;" edge="1" parent="1" target="dS_QDMPEyr2YuthlF6ad-145">
          <mxGeometry width="50" height="50" relative="1" as="geometry">
            <mxPoint x="700" y="230" as="sourcePoint" />
            <mxPoint x="260" y="250" as="targetPoint" />
          </mxGeometry>
        </mxCell>
        <mxCell id="dS_QDMPEyr2YuthlF6ad-148" value="Ренедринг index.html" style="text;html=1;align=center;verticalAlign=middle;resizable=0;points=[];autosize=1;strokeColor=none;fillColor=none;" vertex="1" parent="1">
          <mxGeometry x="360" y="198" width="140" height="30" as="geometry" />
        </mxCell>
        <mxCell id="dS_QDMPEyr2YuthlF6ad-149" value="" style="endArrow=classic;html=1;rounded=0;" edge="1" parent="1" source="dS_QDMPEyr2YuthlF6ad-145">
          <mxGeometry width="50" height="50" relative="1" as="geometry">
            <mxPoint x="410" y="200" as="sourcePoint" />
            <mxPoint x="40" y="260" as="targetPoint" />
          </mxGeometry>
        </mxCell>
        <mxCell id="dS_QDMPEyr2YuthlF6ad-150" value="Новый список стран" style="text;html=1;align=center;verticalAlign=middle;resizable=0;points=[];autosize=1;strokeColor=none;fillColor=none;" vertex="1" parent="1">
          <mxGeometry x="60" y="228" width="140" height="30" as="geometry" />
        </mxCell>
      </root>
    </mxGraphModel>
  </diagram>
</mxfile>
